PathFileType	3	(X/Y/Z)	F:\ViconData\AntennenMessung\Messung1\Session1\ID06.trc
DataRate	CameraRate	NumFrames	NumMarkers	Units	OrigDataRate	OrigDataStartFrame	OrigNumFrames
120.0	120.0	4	70	mm	120.0	475	948	
Frame#	Time	Ashort			Along			Atop			A4			Bshort			Blong			Btop			B4			Cshort			Clong			Ctop			C4			Dshort			Dlong			Dtop			D4			Eshort			Elong			Etop			E4			Fshort			Flong			Ftop			F4			Gshort			Glong			Gtop			G4			Hshort			Hlong			Htop			H4			I1			I2			I3			I4			I5			WandAshort			WandAlong			WandAtop			WandA4			WandA15			WandBshort			WandB4			WandB5			WandBtop			WandBlong			WandCshort			WandClong			WandCtop			WandC4			WandC5			Acenter			Aantenna			Bcenter			Bantenna			Ccenter			Cantenna			Dcenter			Dantenna			Ecenter			Eantenna			Fcenter			Fantenna			Gcenter			Gantenna			Hcenter			Hantenna			Icenter			Iantenna			
		X1	Y1	Z1	X2	Y2	Z2	X3	Y3	Z3	X4	Y4	Z4	X5	Y5	Z5	X6	Y6	Z6	X7	Y7	Z7	X8	Y8	Z8	X9	Y9	Z9	X10	Y10	Z10	X11	Y11	Z11	X12	Y12	Z12	X13	Y13	Z13	X14	Y14	Z14	X15	Y15	Z15	X16	Y16	Z16	X17	Y17	Z17	X18	Y18	Z18	X19	Y19	Z19	X20	Y20	Z20	X21	Y21	Z21	X22	Y22	Z22	X23	Y23	Z23	X24	Y24	Z24	X25	Y25	Z25	X26	Y26	Z26	X27	Y27	Z27	X28	Y28	Z28	X29	Y29	Z29	X30	Y30	Z30	X31	Y31	Z31	X32	Y32	Z32	X33	Y33	Z33	X34	Y34	Z34	X35	Y35	Z35	X36	Y36	Z36	X37	Y37	Z37	X38	Y38	Z38	X39	Y39	Z39	X40	Y40	Z40	X41	Y41	Z41	X42	Y42	Z42	X43	Y43	Z43	X44	Y44	Z44	X45	Y45	Z45	X46	Y46	Z46	X47	Y47	Z47	X48	Y48	Z48	X49	Y49	Z49	X50	Y50	Z50	X51	Y51	Z51	X52	Y52	Z52	X53	Y53	Z53	X54	Y54	Z54	X55	Y55	Z55	X56	Y56	Z56	X57	Y57	Z57	X58	Y58	Z58	X59	Y59	Z59	X60	Y60	Z60	X61	Y61	Z61	X62	Y62	Z62	X63	Y63	Z63	X64	Y64	Z64	X65	Y65	Z65	X66	Y66	Z66	X67	Y67	Z67	X68	Y68	Z68	X69	Y69	Z69	X70	Y70	Z70	
475	3.95	-1038.2483	214.42575	-1644.1404	-1109.3323	203.67216	-1599.5765	-1063.5331	173.18558	-1625.7299	-1054.1458	262.14084	-1634.9535	-1352.7365	235.52583	1003.9599	-1281.4486	227.19547	1052.4714	-1322.9652	194.11292	1020.8875	-1284.7001	287.75378	1052.925	813.85443	187.47249	1209.5109	892.40399	178.18433	1179.3204	844.36548	145.47603	1198.2336	860.8125	292.45554	1167.3656	1115.844	209.83806	-1401.7698	1056.3376	194.07283	-1460.288	1095.0767	162.25298	-1423.9019	1069.8536	238.74567	-1425.9581	-1204.4769	1685.9766	-1563.3186	-1129.1071	1688.2725	-1606.1025	-1173.0923	1724.425	-1581.969	-1133.4929	1581.0508	-1603.5656	-1239.682	1699.1615	1119.4348	-1309.3114	1698.6493	1071.8871	-1270.4587	1736.2566	1096.8906	-1245.757	1592.9659	1110.7037	988.85754	1664.2539	1162.3707	957.47266	1700.3413	1183.8314	922.06653	1662.1882	1214.8701	939.74274	1659.4028	1159.933	999.24597	1668.4948	-1579.5011	1059.0167	1670.1407	-1518.719	1025.1202	1708.0214	-1551.1897	1059.3632	1672.1718	-1585.5897	-232.47707	1722.7283	477.35144	-148.23335	1725.3799	477.57144	-195.61411	1761.0366	478.38937	-195.66956	1722.6877	509.02701	-195.64972	1725.8671	430.73944																																														-1068.6636	209.82454	-1625.0725	-1074.0712	248.44159	-1624.3795	-1321.4988	231.87553	1025.217	-1319.9952	270.5929	1029.6561	848.12415	183.42024	1196.3394	851.96387	222.18248	1194.4044	1088.7787	202.66756	-1428.3854	1082.8094	240.97302	-1432.6351	-1171.8708	1686.9696	-1581.8274	-1170.5999	1647.9907	-1581.6802	-1270.9829	1698.9313	1098.0604	-1271.5303	1659.9542	1099.282	952.89856	1705.6007	1186.9591	972.89972	1733.7632	1168.853	1026.6447	1669.2491	-1551.6387	1028.1768	1630.282	-1552.0901	-194.4435	1723.9253	477.45071	-193.21432	1684.9572	476.46515
476	3.9583333	-1038.2609	214.7083	-1644.1538	-1109.3157	203.73405	-1599.5859	-1063.5837	173.16565	-1625.729	-1054.1477	262.17542	-1634.9648	-1352.7023	235.79099	1003.9265	-1281.3645	227.18587	1052.4402	-1322.9691	194.1214	1020.897	-1284.6902	287.68854	1052.941	813.94122	187.41451	1209.4272	892.51477	178.34575	1179.2698	844.40204	145.40627	1198.318	860.80804	292.54245	1167.3955	1115.7736	209.54063	-1401.6322	1056.3074	194.03815	-1460.2628	1095.0669	162.32011	-1423.9154	1069.8739	238.76544	-1425.9559	-1204.475	1685.9706	-1563.3212	-1129.1053	1688.2573	-1606.0955	-1173.1029	1724.4396	-1581.9756	-1133.499	1581.0724	-1603.6069	-1239.6628	1699.1346	1119.4401	-1309.3274	1698.6642	1071.8969	-1270.488	1736.2987	1096.9087	-1244.9264	1593.8394	1106.4606	988.84937	1664.228	1162.3596	957.48926	1700.3699	1183.8311	922.78442	1662.0745	1215.0018	939.80835	1659.3983	1159.938	999.26245	1668.5115	-1579.5131	1058.995	1670.1143	-1518.7148	1025.1235	1708.0211	-1551.1866	1059.3595	1672.1639	-1585.6007	-232.49458	1722.7223	477.34766	-148.21271	1725.371	477.59067	-195.58534	1761.0598	478.38992	-195.61343	1722.645	509.0351	-195.63336	1725.8717	430.75433																																														-1068.8094	209.99011	-1624.9926	-1074.2877	248.5957	-1624.2208	-1321.355	232.00972	1025.2443	-1319.7061	270.72086	1029.6859	848.03735	183.47922	1196.3407	851.73938	222.25085	1194.327	1088.8199	202.51399	-1428.2069	1082.8634	240.83861	-1432.2991	-1171.8778	1686.9595	-1581.8207	-1170.6039	1647.9806	-1581.6598	-1271.0115	1698.9229	1098.0458	-1271.5576	1659.9447	1099.2316	953.23029	1705.2781	1186.7471	973.04254	1733.3923	1168.3607	1026.6362	1669.246	-1551.6508	1028.1565	1630.2784	-1552.1171	-194.41537	1723.9189	477.45743	-193.18787	1684.9504	476.4791
477	3.9666667	-1038.3123	214.68297	-1644.1654	-1109.327	203.73105	-1599.5886	-1063.5718	173.16736	-1625.7649	-1054.1643	262.18088	-1634.9554	-1352.9391	235.22966	1004.0152	-1281.4194	227.16039	1052.4358	-1322.9707	194.04161	1020.9351	-1284.666	287.75214	1052.9343	813.89697	187.55165	1209.5482	892.90717	177.50041	1180.1477	844.39581	145.37985	1198.3408	860.76215	292.45456	1167.3558	1115.7751	209.5343	-1401.6465	1056.3861	194.14082	-1460.287	1095.082	162.31731	-1423.9154	1069.8502	238.69394	-1425.9774	-1204.4596	1685.9675	-1563.3298	-1128.8633	1688.4208	-1606.1488	-1173.0944	1724.4465	-1581.9989	-1133.512	1581.0385	-1603.5533	-1239.6932	1699.1752	1119.434	-1309.2877	1698.6154	1071.8743	-1270.4453	1736.2313	1096.885	-1245.0248	1593.6156	1106.6194	988.84778	1664.2419	1162.3712	957.52686	1700.2491	1183.8864	922.66199	1662.0497	1215.0177	939.77155	1659.3983	1160.026	999.26562	1668.5083	-1579.5088	1058.8945	1669.9656	-1518.7399	1025.127	1708.009	-1551.1853	1059.3691	1672.1718	-1585.6046	-232.5018	1722.7347	477.34814	-148.26784	1725.3191	477.59387	-195.54059	1760.9963	478.2709	-195.62721	1722.6576	509.05615	-195.6638	1725.854	430.74503																																														-1068.7905	209.98257	-1625.0337	-1074.2632	248.58908	-1624.267	-1321.6218	231.69624	1025.2177	-1320.2345	270.42191	1029.6222	848.56897	183.14084	1196.6464	852.84882	221.86633	1194.9086	1088.8817	202.56361	-1428.2008	1082.9762	240.89719	-1432.2826	-1171.7876	1687.0277	-1581.8356	-1170.4265	1648.0519	-1581.6656	-1270.9551	1698.9236	1098.0701	-1271.4878	1659.9469	1099.3082	953.11133	1705.3252	1186.9194	972.9325	1733.4957	1168.6289	1026.5762	1669.1757	-1551.6759	1028.0305	1630.2058	-1552.1685	-194.40015	1723.9037	477.45926	-193.20192	1684.9314	476.60648
478	3.975	-1038.2239	214.49658	-1644.1598	-1109.3135	203.73688	-1599.608	-1063.683	172.57457	-1625.4633	-1054.1769	262.19269	-1634.9747	-1352.9346	235.23914	1004.0018	-1281.4752	227.12956	1052.4821	-1322.8561	194.19249	1020.8412	-1284.6384	287.71094	1052.8822	813.89606	187.47307	1209.5374	892.88141	178.79369	1178.7521	844.36444	145.44606	1198.2668	860.76978	292.49677	1167.4116	1115.8024	209.54593	-1401.6388	1056.314	194.05746	-1460.2916	1095.1115	162.33215	-1423.9298	1069.8536	238.63708	-1425.9082	-1204.4685	1685.9601	-1563.3116	-1129.0909	1688.2903	-1606.1282	-1173.0875	1724.4421	-1582.0013	-1133.526	1581.0717	-1603.6083	-1239.6774	1699.1501	1119.4412	-1309.1345	1698.3853	1071.7904	-1270.5009	1736.3121	1096.9232	-1245.095	1593.5388	1106.6705	988.87305	1664.2516	1162.3853	957.54816	1700.3159	1183.8374	922.75488	1662.0343	1214.9918	939.78986	1659.4039	1159.9331	999.24854	1668.4575	-1579.474	1059.0107	1670.1285	-1518.7129	1025.1285	1708.0107	-1551.1821	1059.3705	1672.1726	-1585.6169	-232.51096	1722.746	477.34769	-148.24008	1725.3423	477.58218	-195.60457	1761.0403	478.39938	-195.64343	1722.6857	509.03296	-195.65581	1725.8623	430.75424																																														-1068.9667	209.84352	-1624.8932	-1074.4403	248.45297	-1624.3029	-1321.5995	231.68306	1025.2605	-1320.302	270.39346	1029.8234	847.81335	183.74602	1196.3176	851.3067	222.53905	1194.3435	1088.8591	202.53091	-1428.2036	1082.8981	240.85666	-1432.2783	-1171.8403	1686.9685	-1581.8453	-1170.5433	1647.9906	-1581.683	-1270.8597	1698.8066	1098.0485	-1271.2327	1659.826	1099.218	953.23431	1705.2825	1186.7916	973.06067	1733.4147	1168.448	1026.6512	1669.2236	-1551.613	1028.181	1630.2561	-1552.0461	-194.45828	1723.9183	477.45352	-193.25497	1684.9495	476.46063
